<svg xmlns="http://www.w3.org/2000/svg" xmlns:xlink="http://www.w3.org/1999/xlink" viewBox="0 0 1365.94 762.75"><defs><style>.cls-1{fill:url(#Gradiente_sem_nome_33);}</style><linearGradient id="Gradiente_sem_nome_33" x1="947.99" y1="191.59" x2="-18" y2="804.32" gradientUnits="userSpaceOnUse"><stop offset="0" stop-color="#2aa9ff"/><stop offset="1" stop-color="aqua"/></linearGradient></defs><g id="Camada_2" data-name="Camada 2"><g id="Camada_1-2" data-name="Camada 1"><path class="cls-1" d="M202,665c32.54,0,68.62,4.83,98.32,19.44,29.48,14.5,47.43,10.78,78.31-1.17,62.58-24.22,134.66-20.84,194.86,9.13,8,4,16.31,8.56,25.22,8.26,7.3-.24,14.07-3.74,20.71-6.88,68.38-32.33,150.46-32,218.61.81,7.29,3.51,14.71,7.45,22.75,7.82,9.71.45,18.81-4.35,27.66-8.5,63.7-29.85,139.85-29.85,203.55,0,13.63,6.39,26.83,14.1,41.31,18.05,19.28,5.25,32.45-1.22,50.09-7.33,22.24-7.71,47.22-11,70.6-11a255,255,0,0,1,111.94,25.79l-.44-327.89s2.09-.72-26-8c-27-7-8.61-46.57-94-49-86-2.44-36-118-171-120s-34-76.12-210-84C730.5,124.5,740,0,740,0H0V762.75C48.24,703,120.82,665,202,665Z"/></g></g></svg>