<svg xmlns="http://www.w3.org/2000/svg" xmlns:xlink="http://www.w3.org/1999/xlink" viewBox="0 0 1365.14 370"><defs><style>.cls-1{fill:url(#Gradiente_sem_nome_33);}</style><linearGradient id="Gradiente_sem_nome_33" x1="970.51" y1="-8.15" x2="78.17" y2="557.86" gradientUnits="userSpaceOnUse"><stop offset="0" stop-color="#2aa9ff"/><stop offset="1" stop-color="aqua"/></linearGradient></defs><g id="Camada_2" data-name="Camada 2"><g id="Camada_1-2" data-name="Camada 1"><path class="cls-1" d="M201.89,322.58c32.53,0,68.58,2.35,98.27,9.44,29.46,7,47.4,5.22,78.26-.57C441,319.7,513,321.34,573.16,335.88c8,1.94,16.31,4.15,25.21,4,7.3-.11,14.07-1.81,20.7-3.33,68.34-15.69,150.37-15.54,218.48.39,7.29,1.7,14.7,3.61,22.74,3.79,9.7.22,18.8-2.11,27.64-4.12,63.66-14.48,139.77-14.48,203.43,0,13.63,3.1,26.82,6.84,41.29,8.76,19.27,2.54,32.44-.6,50.06-3.56,22.23-3.73,47.2-5.34,70.56-5.34,40,0,77.92,4.49,111.87,12.51l-.43-159.06s2.08-.35-26-3.88c-27-3.39-8.6-22.59-93.94-23.77-86-1.18-36-57.24-170.9-58.21S1039.86,67.13,864,63.3C730.08,60.39,739.57,0,739.57,0H0V370C48.22,341,120.75,322.58,201.89,322.58Z"/></g></g></svg>